<?xml version="1.0" encoding="utf-8"?>
<!DOCTYPE svg PUBLIC "-//W3C//DTD SVG 1.1//EN" "http://www.w3.org/Graphics/SVG/1.1/DTD/svg11.dtd">
<svg version="1.1" id="Ebene_1" xmlns="http://www.w3.org/2000/svg" width="210" height="143" viewBox="0 0 210 143">
  <title>W3C Logo</title>
  <desc>W3C® is a trademark (registered in numerous countries) of the World Wide Web Consortium; marks of W3C are registered and held by its host institutions MIT, ERCIM, and Keio. For more information see: http://www.w3.org/</desc>
  <path fill="#005A9C" d="M52.352,24.412l16.955,57.643L86.26,24.412h12.276h33.688v5.73l-17.307,29.816c6.08,1.949,10.678,5.498,13.795,10.641c3.119,5.146,4.68,11.184,4.68,18.121c0,8.578-2.283,15.787-6.844,21.631s-10.465,8.768-17.713,8.768c-5.458,0-10.211-1.732-14.262-5.201c-4.054-3.469-7.054-8.164-9.002-14.09l9.585-3.975c1.404,3.586,3.256,6.412,5.556,8.475c2.299,2.066,5.008,3.1,8.125,3.1c3.271,0,6.041-1.832,8.301-5.494c2.262-3.664,3.393-8.066,3.393-13.215c0-5.691-1.209-10.096-3.623-13.213c-2.811-3.662-7.215-5.496-13.216-5.496h-4.674v-5.611l16.367-28.297H95.625l-1.124,1.914L70.47,119.113h-1.169l-17.54-58.691l-17.536,58.691h-1.168L5.001,24.414h12.276l16.953,57.643L45.69,43.242l-5.611-18.826h12.273V24.412z"/>
  <path d="M196.023,24.412c-2.41,0-4.574,0.869-6.215,2.535c-1.74,1.768-2.709,4.051-2.709,6.412s0.922,4.549,2.611,6.266c1.717,1.74,3.928,2.686,6.314,2.686c2.334,0,4.6-0.945,6.361-2.658c1.689-1.641,2.611-3.828,2.611-6.289c0-2.387-0.945-4.623-2.584-6.289C200.695,25.33,198.459,24.412,196.023,24.412z M203.805,33.436c0,2.064-0.799,3.979-2.26,5.393c-1.543,1.494-3.457,2.289-5.57,2.289c-1.986,0-3.949-0.818-5.418-2.311c-1.465-1.494-2.287-3.406-2.287-5.443c0-2.039,0.846-4.027,2.361-5.566c1.416-1.443,3.328-2.211,5.416-2.211c2.139,0,4.051,0.799,5.543,2.311C203.033,29.336,203.805,31.271,203.805,33.436z M196.27,28.115h-3.826v10.143h1.914v-4.324h1.891l2.063,4.324h2.137l-2.264-4.621c1.465-0.301,2.313-1.293,2.313-2.734C200.496,29.063,199.105,28.115,196.27,28.115z M195.924,29.359c1.789,0,2.609,0.498,2.609,1.74c0,1.191-0.82,1.617-2.563,1.617h-1.617v-3.357H195.924L195.924,29.359z"/>
  <path d="M180.973,23.881l1.988,12.09l-7.039,13.469c0,0-2.701-5.715-7.191-8.875c-3.781-2.664-6.246-3.244-10.1-2.449c-4.949,1.021-10.561,6.938-13.01,14.234c-2.93,8.727-2.959,12.953-3.063,16.832c-0.164,6.223,0.816,9.896,0.816,9.896s-4.275-7.906-4.234-19.486c0.027-8.268,1.328-15.764,5.152-23.16c3.365-6.504,8.367-10.408,12.807-10.867c4.59-0.473,8.215,1.738,11.02,4.131c2.941,2.516,5.916,8.01,5.916,8.01L180.973,23.881z"/>
  <path d="M181.84,92.289c0,0-3.111,5.563-5.049,7.705c-1.939,2.145-5.408,5.918-9.691,7.807c-4.283,1.887-6.529,2.24-10.764,1.836c-4.229-0.406-8.16-2.855-9.537-3.877s-4.898-4.029-6.889-6.836c-1.992-2.807-5.102-8.416-5.102-8.416s1.732,5.623,2.82,8.01c0.623,1.375,2.541,5.576,5.266,9.232c2.541,3.41,7.475,9.283,14.973,10.609c7.498,1.328,12.65-2.041,13.926-2.855c1.273-0.814,3.961-3.066,5.664-4.889c1.775-1.896,3.457-4.32,4.385-5.773c0.682-1.063,1.789-3.215,1.789-3.215L181.84,92.289z"/>
</svg>